<?xml version="1.0" encoding="UTF-8"?>
<svg width="1200px" height="357px" viewBox="0 0 1200 357" version="1.1" xmlns="http://www.w3.org/2000/svg" xmlns:xlink="http://www.w3.org/1999/xlink">
    <title>logo-</title>
    <g id="Page-1" stroke="none" stroke-width="1" fill="none" fill-rule="evenodd">
        <g id="logo-">
            <rect id="Rectangle" x="0" y="0" width="1200" height="357"></rect>
            <path d="M386.815,193.188 L366.878,193.188 C366.791,198.938 367.84,203.904 370.026,208.086 C372.212,212.268 375.163,215.709 378.88,218.41 C382.596,221.111 386.881,223.093 391.734,224.356 C396.587,225.62 401.593,226.251 406.752,226.251 C413.135,226.251 418.753,225.511 423.606,224.03 C428.459,222.548 432.525,220.479 435.804,217.822 C439.083,215.165 441.553,212.006 443.215,208.347 C444.876,204.688 445.707,200.724 445.707,196.455 C445.707,191.227 444.592,186.936 442.362,183.582 C440.132,180.228 437.487,177.549 434.427,175.545 C431.366,173.541 428.284,172.082 425.18,171.167 C422.076,170.252 419.649,169.62 417.9,169.272 C412.042,167.791 407.298,166.571 403.669,165.613 C400.04,164.654 397.199,163.696 395.144,162.738 C393.089,161.779 391.712,160.734 391.012,159.601 C390.313,158.468 389.963,156.987 389.963,155.158 C389.963,153.154 390.4,151.498 391.274,150.192 C392.149,148.885 393.264,147.796 394.619,146.924 C395.974,146.053 397.483,145.443 399.144,145.095 C400.806,144.746 402.467,144.572 404.128,144.572 C406.664,144.572 409.003,144.79 411.146,145.226 C413.288,145.661 415.19,146.402 416.851,147.447 C418.513,148.493 419.846,149.93 420.852,151.76 C421.857,153.589 422.447,155.898 422.622,158.686 L442.559,158.686 C442.559,153.285 441.532,148.689 439.477,144.899 C437.422,141.109 434.646,137.9942 431.148,135.5547 C427.65,133.1152 423.65,131.351 419.146,130.2619 C414.643,129.1728 409.943,128.6283 405.047,128.6283 C400.849,128.6283 396.652,129.1946 392.455,130.3272 C388.258,131.4599 384.498,133.2023 381.175,135.5547 C377.852,137.9071 375.163,140.8475 373.109,144.376 C371.054,147.905 370.026,152.065 370.026,156.857 C370.026,161.126 370.835,164.763 372.453,167.769 C374.07,170.775 376.191,173.28 378.814,175.283 C381.437,177.287 384.41,178.921 387.733,180.184 C391.056,181.448 394.466,182.515 397.964,183.386 C401.374,184.344 404.74,185.216 408.063,186 C411.386,186.784 414.359,187.699 416.982,188.744 C419.606,189.79 421.726,191.097 423.344,192.665 C424.961,194.233 425.77,196.28 425.77,198.807 C425.77,201.159 425.158,203.098 423.934,204.623 C422.71,206.147 421.18,207.345 419.343,208.216 C417.507,209.088 415.54,209.676 413.441,209.981 C411.342,210.286 409.375,210.438 407.539,210.438 C404.828,210.438 402.205,210.111 399.669,209.458 C397.133,208.805 394.925,207.803 393.045,206.452 C391.165,205.102 389.657,203.338 388.52,201.159 C387.383,198.981 386.815,196.324 386.815,193.188 Z M478.629,148.101 L478.629,224.16 L499.221,224.16 L499.221,148.101 L527.29,148.101 L527.29,130.85 L450.56,130.85 L450.56,148.101 L478.629,148.101 Z M558.638,173.062 L558.638,146.794 L581.198,146.794 C585.919,146.794 589.461,147.817 591.822,149.865 C594.183,151.912 595.363,155.201 595.363,159.732 C595.363,164.436 594.183,167.834 591.822,169.925 C589.461,172.016 585.919,173.062 581.198,173.062 L558.638,173.062 Z M538.045,130.85 L538.045,224.16 L558.638,224.16 L558.638,187.699 L579.23,187.699 C584.389,187.699 588.105,188.831 590.379,191.097 C592.652,193.362 594.139,196.934 594.838,201.813 C595.363,205.559 595.757,209.48 596.019,213.575 C596.281,217.669 596.981,221.198 598.117,224.16 L618.71,224.16 C617.748,222.853 617.027,221.263 616.546,219.39 C616.065,217.517 615.715,215.535 615.496,213.444 C615.278,211.353 615.125,209.306 615.037,207.302 C614.95,205.298 614.863,203.555 614.775,202.074 C614.6,199.722 614.272,197.369 613.791,195.017 C613.31,192.665 612.545,190.508 611.496,188.548 C610.447,186.588 609.091,184.889 607.43,183.451 C605.769,182.014 603.67,180.947 601.134,180.25 L601.134,179.988 C606.381,177.897 610.163,174.848 612.48,170.84 C614.797,166.832 615.956,162.084 615.956,156.595 C615.956,153.023 615.322,149.691 614.054,146.598 C612.786,143.505 610.95,140.7822 608.545,138.4298 C606.14,136.0774 603.255,134.2261 599.888,132.8756 C596.522,131.5252 592.74,130.85 588.543,130.85 L538.045,130.85 Z M632.744,130.85 L632.744,224.16 L653.337,224.16 L653.337,130.85 L632.744,130.85 Z M692.03,174.761 L692.03,146.794 L708.031,146.794 C710.392,146.794 712.666,146.968 714.852,147.317 C717.038,147.665 718.962,148.34 720.623,149.342 C722.284,150.344 723.618,151.76 724.624,153.589 C725.629,155.419 726.132,157.815 726.132,160.777 C726.132,163.739 725.629,166.135 724.624,167.965 C723.618,169.795 722.284,171.21 720.623,172.212 C718.962,173.214 717.038,173.889 714.852,174.238 C712.666,174.586 710.392,174.761 708.031,174.761 L692.03,174.761 Z M671.437,130.85 L671.437,224.16 L692.03,224.16 L692.03,190.704 L713.672,190.704 C719.53,190.704 724.514,189.855 728.624,188.156 C732.734,186.457 736.078,184.214 738.658,181.426 C741.237,178.638 743.117,175.436 744.298,171.82 C745.478,168.205 746.069,164.524 746.069,160.777 C746.069,156.944 745.478,153.241 744.298,149.669 C743.117,146.097 741.237,142.917 738.658,140.1287 C736.078,137.3407 732.734,135.0973 728.624,133.3984 C724.514,131.6994 719.53,130.85 713.672,130.85 L671.437,130.85 Z M825.946,158.948 L838.407,158.948 C837.707,153.982 836.221,149.604 833.947,145.814 C831.674,142.024 828.832,138.8654 825.422,136.3388 C822.012,133.8122 818.12,131.8955 813.748,130.5886 C809.376,129.2817 804.742,128.6283 799.845,128.6283 C792.675,128.6283 786.314,129.9134 780.761,132.4836 C775.208,135.0538 770.574,138.5605 766.858,143.004 C763.141,147.447 760.322,152.653 758.398,158.621 C756.474,164.589 755.512,170.971 755.512,177.767 C755.512,184.562 756.408,190.922 758.201,196.847 C759.994,202.771 762.682,207.912 766.268,212.268 C769.853,216.624 774.356,220.044 779.777,222.527 C785.199,225.01 791.538,226.251 798.796,226.251 C810.775,226.251 820.219,222.984 827.127,216.45 C834.035,209.915 838.101,200.767 839.325,189.006 L826.865,189.006 C826.602,192.839 825.815,196.411 824.504,199.722 C823.192,203.033 821.378,205.886 819.06,208.282 C816.743,210.678 813.989,212.551 810.797,213.901 C807.606,215.252 803.955,215.927 799.845,215.927 C794.249,215.927 789.44,214.882 785.417,212.791 C781.395,210.7 778.094,207.89 775.514,204.361 C772.935,200.833 771.033,196.694 769.809,191.946 C768.585,187.198 767.973,182.166 767.973,176.852 C767.973,171.973 768.585,167.268 769.809,162.738 C771.033,158.207 772.935,154.178 775.514,150.649 C778.094,147.12 781.373,144.311 785.352,142.22 C789.33,140.1287 794.118,139.0832 799.714,139.0832 C806.272,139.0832 811.934,140.7386 816.699,144.049 C821.465,147.36 824.547,152.326 825.946,158.948 Z M854.802,130.85 L854.802,224.16 L867.263,224.16 L867.263,181.426 L916.58,181.426 L916.58,224.16 L929.04,224.16 L929.04,130.85 L916.58,130.85 L916.58,170.971 L867.263,170.971 L867.263,130.85 L854.802,130.85 Z M965.634,185.608 L981.505,142.089 L981.767,142.089 L997.376,185.608 L965.634,185.608 Z M974.947,130.85 L938.484,224.16 L951.206,224.16 L961.699,196.063 L1001.31,196.063 L1011.541,224.16 L1025.313,224.16 L988.719,130.85 L974.947,130.85 Z M1055.743,141.305 L1055.743,224.16 L1068.203,224.16 L1068.203,141.305 L1099.42,141.305 L1099.42,130.85 L1024.526,130.85 L1024.526,141.305 L1055.743,141.305 Z" id="Shape" fill="#903232"></path>
            <path d="M180.5535,256.208 C180.5535,256.208 179.317,255.982 179.0916,255.921 C175.4742,254.946 171.7286,255.907 169.0474,257.224 C166.4346,258.509 167.5445,257.975 167.5445,257.975 C163.1848,260.153 158.5657,262.163 153.7179,264.005 C140.5447,269.011 126.2873,272.587 111.9335,274.926 C113.2051,273.012 114.3771,271.178 115.442,269.427 C118.3162,264.701 121.9997,257.965 126.2994,249.724 C126.2994,249.724 129.8452,243.483 131.2588,240.218 C132.6609,236.979 131.042,233.923 129.026,231.947 C127.01,229.972 122.914,225.535 122.914,225.535 C108.087,209.978 100,190.835 100,170.747 C100,123.0488 146.0412,83 204.256,83 C262.47,83 308.512,123.0488 308.512,170.747 C308.512,215.836 267.37,254.089 213.695,258.14 C212.512,258.229 210.132,257.307 210.105,254.395 C209.946,236.895 209.784,201.959 209.784,201.959 C209.784,200.318 210.917,198.315 212.313,197.485 L252.82,150.697 C253.269,150.179 252.9,149.373 252.215,149.374 L154.2515,149.422 C153.5663,149.422 153.1986,150.228 153.6471,150.746 L194.064,197.426 C195.447,198.289 196.568,200.322 196.568,201.959 C196.568,201.959 196.52,236.999 196.634,254.518 C196.651,257.2 193.974,258.226 192.665,258.092 C188.572,257.673 184.6095,257.005 180.5535,256.208 Z" id="Path" fill="#903232"></path>
        </g>
    </g>
</svg>